<svg width="24" height="24" viewBox="0 0 24 24" fill="none" xmlns="http://www.w3.org/2000/svg">
<path d="M16.14 2.95998L7.11 5.95998C1.04 7.98998 1.04 11.3 7.11 13.32L9.79 14.21L10.68 16.89C12.7 22.96 16.02 22.96 18.04 16.89L21.05 7.86998C22.39 3.81998 20.19 1.60998 16.14 2.95998ZM16.46 8.33998L12.66 12.16C12.51 12.31 12.32 12.38 12.13 12.38C11.94 12.38 11.75 12.31 11.6 12.16C11.4605 12.0188 11.3823 11.8284 11.3823 11.63C11.3823 11.4316 11.4605 11.2411 11.6 11.1L15.4 7.27998C15.69 6.98998 16.17 6.98998 16.46 7.27998C16.75 7.56998 16.75 8.04998 16.46 8.33998Z" fill="#FF007A"/>
</svg>
